<svg xmlns="http://www.w3.org/2000/svg" xmlns:xlink="http://www.w3.org/1999/xlink" width="190.927" height="47.101" viewBox="0 0 190.927 47.101">
  <defs>
    <clipPath id="clip-path">
      <rect id="Rectangle_41" data-name="Rectangle 41" width="144.671" height="26.033" transform="translate(0 0)" fill="#fff"/>
    </clipPath>
  </defs>
  <g id="Group_189" data-name="Group 189" transform="translate(-2101.139 -1273.514)">
    <g id="Group_189-2" data-name="Group 189" transform="translate(2101.139 1273.514)">
      <path id="Path_696" data-name="Path 696" d="M33.011,44.929V37.067h0l-10.6-6.123a.292.292,0,0,0-.437.252l-.01,2.684,2.761,1.593v3.521a.408.408,0,0,1-.408.408H19.626a.408.408,0,0,1-.408-.408V24.49a.291.291,0,0,1,.146-.252l2.609-1.505,2.612,1.521a.291.291,0,0,1,.145.252V29.1l2.323,1.341a.291.291,0,0,0,.437-.252l0-5.77V22.909a.292.292,0,0,0-.144-.252L21.99,19.533l-.006,0L16.6,22.636a.293.293,0,0,0-.146.253l0,.537-.005.425v3.637L13.689,25.9V21.188a.642.642,0,0,1,.321-.556l7.639-4.41a.644.644,0,0,1,.642,0l7.639,4.41a.642.642,0,0,1,.321.556V32.3l2.367,1.366a.262.262,0,0,0,.393-.227V19.593a.638.638,0,0,0-.319-.553c-3.468-2.01-6.936-4.141-10.4-6.151a.633.633,0,0,0-.634,0c-3.469,2.01-6.937,4.141-10.4,6.151a.638.638,0,0,0-.319.553v7.527a.642.642,0,0,0,.321.556l5.2,3V39.4h0v2.128a.642.642,0,0,0,.642.642h9.759a.642.642,0,0,0,.642-.642V40.241h0V37.07l2.75,1.587v5.631a.641.641,0,0,1-.641.641H14.334a.641.641,0,0,1-.641-.641v-12l-2.766-1.6V47.057a.641.641,0,0,0,.641.641h20.8a.641.641,0,0,0,.641-.641V44.929Z" transform="translate(-5.231 -6.129)" fill="#3195ff"/>
      <path id="Path_697" data-name="Path 697" d="M32.874,9.865h0L17.363.553,16.443,0l-.684.411L.012,9.865H0v.006H0V35.495l2.766,1.6V11.436L16.443,3.226l.081.049.081-.049,13.667,8.2v2.694l2.6,1.51V9.865Z" transform="translate(0 0)" fill="#3195ff"/>
      <path id="Path_698" data-name="Path 698" d="M30.273,60.229H2.768V56.194L0,54.6v7.758a.641.641,0,0,0,.641.642H32.235a.642.642,0,0,0,.642-.642V34.7l-2.6-1.5Z" transform="translate(-0.002 -15.894)" fill="#3195ff"/>
    </g>
    <g id="Group_190" data-name="Group 190" transform="translate(2147.396 1290.075)">
      <g id="Group_181" data-name="Group 181" transform="translate(0 0)" clip-path="url(#clip-path)">
        <g id="Group_184" data-name="Group 184" transform="translate(137.854 5.258)">
          <path id="Path_750" data-name="Path 750" d="M274.747,13.6a.4.4,0,0,0,.091-.063.789.789,0,0,0,.1-.11.558.558,0,0,0,.089-.168.66.66,0,0,0,.038-.224.625.625,0,0,0-.194-.465.672.672,0,0,0-.491-.19H273.5v2h.429v-.7h.371l.384.7h.457l-.428-.756Zm-.185-.383a.268.268,0,0,1-.194.075h-.441v-.528h.441a.265.265,0,0,1,.194.077.261.261,0,0,1,.078.193.244.244,0,0,1-.078.184" transform="translate(-272.069 -11.219)" fill="#fff"/>
          <path id="Path_751" data-name="Path 751" d="M272.9,10.142a2.158,2.158,0,1,0,2.158,2.158,2.16,2.16,0,0,0-2.158-2.158m0,3.8a1.639,1.639,0,1,1,1.639-1.64,1.642,1.642,0,0,1-1.639,1.64" transform="translate(-270.741 -10.142)" fill="#fff"/>
        </g>
        <path id="Path_752" data-name="Path 752" d="M12.315,10.034a10.664,10.664,0,0,0-2.047-.993,22.774,22.774,0,0,0-2.219-.684A17.6,17.6,0,0,1,6.08,7.743a3.624,3.624,0,0,1-1.373-.89,1.855,1.855,0,0,1-.5-1.326,1.943,1.943,0,0,1,.819-1.546,3.477,3.477,0,0,1,2.254-.686,5.311,5.311,0,0,1,1.349.167,4.768,4.768,0,0,1,1.026.377,5.376,5.376,0,0,1,.737.478,2.763,2.763,0,0,1,.415.361,2.361,2.361,0,0,0,.176.206l.184.184,2.283-2.3-.37-.463a4.976,4.976,0,0,0-.765-.653A11.04,11.04,0,0,0,11.137.919,7.771,7.771,0,0,0,9.426.273,8.349,8.349,0,0,0,7.281,0a7.089,7.089,0,0,0-4.83,1.574A5.067,5.067,0,0,0,.643,5.527a5.508,5.508,0,0,0,.6,2.649A4.542,4.542,0,0,0,2.8,9.891a10.934,10.934,0,0,0,2.046,1,21.772,21.772,0,0,0,2.22.692,17.626,17.626,0,0,1,1.968.614,3.666,3.666,0,0,1,1.373.884h0a1.828,1.828,0,0,1,.5,1.318,2.475,2.475,0,0,1-.951,1.982,4.039,4.039,0,0,1-2.677.819A6.8,6.8,0,0,1,5.5,16.971a6.236,6.236,0,0,1-1.344-.5,5.7,5.7,0,0,1-.939-.648,5.171,5.171,0,0,1-.55-.509c-.078-.094-.134-.166-.167-.215l-.175-.264L0,17.154l.422.527a6.256,6.256,0,0,0,.862.779,11.149,11.149,0,0,0,1.372.909,8.638,8.638,0,0,0,2.032.784,10.1,10.1,0,0,0,2.593.327,7.714,7.714,0,0,0,5.263-1.69,5.613,5.613,0,0,0,1.93-4.392,5.529,5.529,0,0,0-.6-2.642,4.531,4.531,0,0,0-1.559-1.721" transform="translate(0 0)" fill="#fff"/>
        <rect id="Rectangle_39" data-name="Rectangle 39" width="3.295" height="13.831" transform="translate(16.163 6.379)" fill="#fff"/>
        <path id="Path_753" data-name="Path 753" d="M32.58,1.071A1.881,1.881,0,0,0,30.655,3a1.925,1.925,0,1,0,3.85,0A1.881,1.881,0,0,0,32.58,1.071" transform="translate(-14.763 -0.516)" fill="#fff"/>
        <path id="Path_754" data-name="Path 754" d="M57.389,11.756a6.4,6.4,0,0,0-3.058.8,5.8,5.8,0,0,0-.956.715c-.259.238-.435.409-.537.52a4.843,4.843,0,0,0-.426-.507,6.466,6.466,0,0,0-.782-.7,3.979,3.979,0,0,0-1.24-.6,4.97,4.97,0,0,0-3.645.252,5.778,5.778,0,0,0-1.282.783l-.016.016v-1H42.152V25.871h3.295V18.407a4.061,4.061,0,0,1,.812-2.684,2.464,2.464,0,0,1,1.976-.944,2.3,2.3,0,0,1,1.831.759,3.4,3.4,0,0,1,.686,2.313v8.019h3.3V18.407a4.061,4.061,0,0,1,.812-2.684,2.464,2.464,0,0,1,1.976-.944,2.3,2.3,0,0,1,1.831.759,3.408,3.408,0,0,1,.686,2.313v8.019h3.3V17.852a6.591,6.591,0,0,0-1.4-4.52,4.933,4.933,0,0,0-3.856-1.576" transform="translate(-20.3 -5.661)" fill="#fff"/>
        <path id="Path_755" data-name="Path 755" d="M92.27,11.756a5.854,5.854,0,0,0-2.394.524,6.5,6.5,0,0,0-1.538.857l-.1.092V12.041H84.942V31.694h3.294V24.681c.1.075.209.16.341.255a7.822,7.822,0,0,0,.917.56,5.7,5.7,0,0,0,1.264.462,6.241,6.241,0,0,0,1.512.184,6.426,6.426,0,0,0,4.771-2.1,7.112,7.112,0,0,0,2.016-5.089,7.11,7.11,0,0,0-2.016-5.089,6.427,6.427,0,0,0-4.771-2.1m3.492,7.2a4.186,4.186,0,0,1-1.149,2.958,3.414,3.414,0,0,1-5.228,0,4.382,4.382,0,0,1,0-5.916,3.414,3.414,0,0,1,5.228,0,4.185,4.185,0,0,1,1.149,2.958" transform="translate(-40.907 -5.661)" fill="#fff"/>
        <rect id="Rectangle_40" data-name="Rectangle 40" width="3.282" height="19.939" transform="translate(59.84 0.271)" fill="#fff"/>
        <path id="Path_756" data-name="Path 756" d="M131.024,11.756a7.08,7.08,0,0,0-7.051,7.058,7.132,7.132,0,0,0,2.127,5.173,6.9,6.9,0,0,0,5.066,2.156,7.268,7.268,0,0,0,2.128-.316,8.2,8.2,0,0,0,1.671-.687,8.4,8.4,0,0,0,1.216-.852,7.742,7.742,0,0,0,.755-.694c.117-.137.2-.243.261-.318l.135-.179-2.162-2.163-.6.735a4.548,4.548,0,0,1-1.35.965,4.379,4.379,0,0,1-2.053.5,3.975,3.975,0,0,1-3.856-2.948h10.318l.175-1.641a6.623,6.623,0,0,0-6.78-6.787m-.007,2.888a3.428,3.428,0,0,1,3.486,2.664h-7.042a4.042,4.042,0,0,1,1.2-1.84h0a3.478,3.478,0,0,1,2.356-.824" transform="translate(-59.704 -5.661)" fill="#fff"/>
        <path id="Path_757" data-name="Path 757" d="M166.953,12.72H170.7V15.4l-.128.128a4.085,4.085,0,0,1-.588.447,9.51,9.51,0,0,1-1,.567,6.163,6.163,0,0,1-1.435.466,8.836,8.836,0,0,1-1.862.191,6.9,6.9,0,0,1-6.959-6.959A6.9,6.9,0,0,1,165.7,3.295a7.013,7.013,0,0,1,2.083.307,7.909,7.909,0,0,1,1.605.667,6.58,6.58,0,0,1,1.146.853,7.756,7.756,0,0,1,.685.683c.1.128.179.229.233.3l.18.239,2.308-2.325-.441-.56a6.772,6.772,0,0,0-1.014-.974A15.392,15.392,0,0,0,170.9,1.367,9.041,9.041,0,0,0,168.6.4a10.564,10.564,0,0,0-2.9-.4A10.325,10.325,0,0,0,158.2,2.973a9.837,9.837,0,0,0-3.03,7.268,9.835,9.835,0,0,0,3.03,7.267A10.321,10.321,0,0,0,165.7,20.48a12.609,12.609,0,0,0,5.437-1.269,10.509,10.509,0,0,0,1.707-1.124,10.358,10.358,0,0,0,1.033-.909c.153-.172.266-.3.341-.4l.057-.072V9.426h-7.316Z" transform="translate(-74.729 0)" fill="#fff"/>
        <path id="Path_758" data-name="Path 758" d="M201.3,11.756a7.049,7.049,0,0,0-1.962.275,6.371,6.371,0,0,0-1.532.63,8.315,8.315,0,0,0-1.084.79,6.825,6.825,0,0,0-.665.625c-.1.117-.177.214-.233.289l-.135.18,2.169,2.169.55-.713a3.137,3.137,0,0,1,1.094-.809,3.908,3.908,0,0,1,1.8-.412,2.56,2.56,0,0,1,1.822.649,2.04,2.04,0,0,1,.686,1.368l-4.636.8a5.094,5.094,0,0,0-2.985,1.487,4.148,4.148,0,0,0-1.106,2.926,3.78,3.78,0,0,0,1.429,2.89,5.2,5.2,0,0,0,3.543,1.242,5.7,5.7,0,0,0,1.433-.185,6.11,6.11,0,0,0,1.174-.418,6.32,6.32,0,0,0,.868-.523q.166-.12.287-.212v1.067h3.294V17.013a4.924,4.924,0,0,0-1.64-3.746,5.924,5.924,0,0,0-4.171-1.511m2.517,7.782a3.777,3.777,0,0,1-.884,2.666,3.2,3.2,0,0,1-2.459.928,2.5,2.5,0,0,1-1.567-.447,1.2,1.2,0,0,1-.544-.96,1.377,1.377,0,0,1,.388-1.011,1.891,1.891,0,0,1,1.06-.534Z" transform="translate(-94.232 -5.661)" fill="#fff"/>
        <path id="Path_759" data-name="Path 759" d="M228.273,19.206a1.687,1.687,0,0,1-1.616-.335,1.389,1.389,0,0,1-.4-1.036V11.188h2.777V8.178h-2.777V3.736h-3.01V6.771c0,1.247-.6,1.407-1.122,1.407h-1.654v3.01h2.505v6.674a4.586,4.586,0,0,0,1.1,3.371,4.114,4.114,0,0,0,3.029,1.047A6.561,6.561,0,0,0,229.141,22l.178-.058V18.92l-.565.154a2.568,2.568,0,0,1-.482.133" transform="translate(-106.914 -1.799)" fill="#fff"/>
        <path id="Path_760" data-name="Path 760" d="M254.1,18.543a6.623,6.623,0,0,0-6.78-6.787,7.08,7.08,0,0,0-7.051,7.058,7.132,7.132,0,0,0,2.127,5.173,6.9,6.9,0,0,0,5.066,2.156,7.268,7.268,0,0,0,2.128-.316,8.205,8.205,0,0,0,1.671-.687,8.4,8.4,0,0,0,1.216-.852,7.734,7.734,0,0,0,.755-.694c.117-.137.2-.243.261-.318l.135-.179-2.162-2.163-.6.735a4.549,4.549,0,0,1-1.35.965,4.379,4.379,0,0,1-2.053.5,3.975,3.975,0,0,1-3.856-2.948H253.93Zm-6.786-3.9a3.428,3.428,0,0,1,3.486,2.664h-7.042a4.042,4.042,0,0,1,1.2-1.84h0a3.479,3.479,0,0,1,2.356-.824" transform="translate(-117.346 -5.661)" fill="#fff"/>
      </g>
    </g>
  </g>
</svg>
