<svg xmlns="http://www.w3.org/2000/svg" xmlns:xlink="http://www.w3.org/1999/xlink" width="136.38" height="33.645" viewBox="0 0 136.38 33.645">
  <defs>
    <clipPath id="clip-path">
      <rect id="Rectangle_41" data-name="Rectangle 41" width="103.339" height="18.595" transform="translate(0 0)" fill="#fff"/>
    </clipPath>
  </defs>
  <g id="Group_193" data-name="Group 193" transform="translate(-2101.139 -1273.514)">
    <g id="Group_189" data-name="Group 189" transform="translate(2101.139 1273.514)">
      <path id="Path_696" data-name="Path 696" d="M26.7,35.751V30.135h0l-7.571-4.374a.208.208,0,0,0-.312.18l-.007,1.917L20.783,29v2.515a.292.292,0,0,1-.292.292H17.141a.292.292,0,0,1-.292-.292V21.151a.208.208,0,0,1,.1-.18L18.817,19.9l1.866,1.087a.208.208,0,0,1,.1.18v3.281l1.659.958a.208.208,0,0,0,.312-.18v-5.2a.209.209,0,0,0-.1-.18L18.829,17.61l0,0-3.848,2.22a.209.209,0,0,0-.1.181v.384l0,.3v2.6L12.9,22.156V18.793a.458.458,0,0,1,.229-.4l5.456-3.15a.46.46,0,0,1,.458,0L24.5,18.4a.459.459,0,0,1,.229.4v7.939l1.691.976a.187.187,0,0,0,.281-.162V17.653a.456.456,0,0,0-.228-.4C24,15.822,21.519,14.3,19.042,12.864a.452.452,0,0,0-.453,0c-2.478,1.436-4.955,2.958-7.432,4.394a.456.456,0,0,0-.228.4v5.376a.458.458,0,0,0,.229.4l3.713,2.144V31.8h0v1.52a.458.458,0,0,0,.458.458H22.3a.458.458,0,0,0,.458-.458V32.4h0V30.137l1.964,1.133v4.022a.458.458,0,0,1-.458.458H13.361a.458.458,0,0,1-.458-.458V26.72L10.927,25.58V37.271a.458.458,0,0,0,.458.458H26.244a.458.458,0,0,0,.458-.458v-1.52Z" transform="translate(-6.859 -8.036)" fill="#fff"/>
      <path id="Path_697" data-name="Path 697" d="M23.482,7.046h0L12.4.395,11.745,0l-.489.294L.009,7.046H0v0H0v18.3L1.977,26.5V8.169L11.745,2.3l.058.035.058-.035,9.762,5.861v1.924l1.859,1.078V7.046Z" transform="translate(0 0)" fill="#fff"/>
      <path id="Path_698" data-name="Path 698" d="M21.625,52.507H1.978V49.625L0,48.483v5.541a.458.458,0,0,0,.458.458H23.026a.458.458,0,0,0,.458-.458V34.273L21.625,33.2Z" transform="translate(-0.002 -20.838)" fill="#fff"/>
    </g>
    <g id="Group_190" data-name="Group 190" transform="translate(2134.181 1285.344)">
      <g id="Group_181" data-name="Group 181" transform="translate(0 0)" clip-path="url(#clip-path)">
        <g id="Group_184" data-name="Group 184" transform="translate(98.47 3.756)">
          <path id="Path_750" data-name="Path 750" d="M274.39,13.25a.288.288,0,0,0,.065-.045.563.563,0,0,0,.074-.079.4.4,0,0,0,.063-.12.471.471,0,0,0,.027-.16.446.446,0,0,0-.139-.332.48.48,0,0,0-.351-.136H273.5V13.8h.306v-.5h.265l.274.5h.326l-.305-.54Zm-.132-.273a.191.191,0,0,1-.139.053H273.8v-.377h.315a.189.189,0,0,1,.139.055.187.187,0,0,1,.056.138.174.174,0,0,1-.056.131" transform="translate(-272.477 -11.55)" fill="#fff"/>
          <path id="Path_751" data-name="Path 751" d="M272.282,10.142a1.541,1.541,0,1,0,1.541,1.541,1.543,1.543,0,0,0-1.541-1.541m0,2.712a1.171,1.171,0,1,1,1.171-1.171,1.173,1.173,0,0,1-1.171,1.171" transform="translate(-270.741 -10.142)" fill="#fff"/>
        </g>
        <path id="Path_752" data-name="Path 752" d="M8.8,7.168a7.617,7.617,0,0,0-1.462-.709A16.267,16.267,0,0,0,5.749,5.97a12.573,12.573,0,0,1-1.406-.439A2.589,2.589,0,0,1,3.363,4.9a1.325,1.325,0,0,1-.357-.947,1.388,1.388,0,0,1,.585-1.1,2.483,2.483,0,0,1,1.61-.49,3.794,3.794,0,0,1,.964.12,3.406,3.406,0,0,1,.733.269,3.84,3.84,0,0,1,.526.342,1.974,1.974,0,0,1,.3.258,1.687,1.687,0,0,0,.126.147l.131.131,1.63-1.642-.264-.331A3.554,3.554,0,0,0,8.8,1.181,7.886,7.886,0,0,0,7.955.657,5.551,5.551,0,0,0,6.733.195,5.964,5.964,0,0,0,5.2,0a5.064,5.064,0,0,0-3.45,1.125A3.62,3.62,0,0,0,.459,3.948,3.934,3.934,0,0,0,.888,5.84,3.245,3.245,0,0,0,2,7.065a7.81,7.81,0,0,0,1.462.713,15.552,15.552,0,0,0,1.586.494,12.591,12.591,0,0,1,1.406.438,2.619,2.619,0,0,1,.981.631h0a1.306,1.306,0,0,1,.356.941A1.768,1.768,0,0,1,7.113,11.7a2.885,2.885,0,0,1-1.912.585,4.859,4.859,0,0,1-1.272-.163,4.455,4.455,0,0,1-.96-.361A4.068,4.068,0,0,1,2.3,11.3a3.694,3.694,0,0,1-.393-.364c-.056-.067-.1-.119-.119-.154l-.125-.189L0,12.253l.3.377a4.469,4.469,0,0,0,.616.557,7.964,7.964,0,0,0,.98.649,6.17,6.17,0,0,0,1.452.56,7.217,7.217,0,0,0,1.852.233,5.51,5.51,0,0,0,3.76-1.207,4.01,4.01,0,0,0,1.378-3.138A3.95,3.95,0,0,0,9.91,8.4,3.236,3.236,0,0,0,8.8,7.168" transform="translate(0 0)" fill="#fff"/>
        <rect id="Rectangle_39" data-name="Rectangle 39" width="2.353" height="9.879" transform="translate(11.545 4.557)" fill="#fff"/>
        <path id="Path_753" data-name="Path 753" d="M32.03,1.071a1.344,1.344,0,0,0-1.375,1.375,1.375,1.375,0,1,0,2.75,0A1.344,1.344,0,0,0,32.03,1.071" transform="translate(-19.303 -0.674)" fill="#fff"/>
        <path id="Path_754" data-name="Path 754" d="M53.036,11.756a4.574,4.574,0,0,0-2.184.573,4.142,4.142,0,0,0-.683.511c-.185.17-.311.292-.384.371a3.459,3.459,0,0,0-.3-.362,4.619,4.619,0,0,0-.559-.5,2.842,2.842,0,0,0-.885-.427,3.55,3.55,0,0,0-2.6.18,4.127,4.127,0,0,0-.916.559l-.011.011v-.715H42.152v9.879h2.353V16.507a2.9,2.9,0,0,1,.58-1.917,1.76,1.76,0,0,1,1.411-.674,1.644,1.644,0,0,1,1.308.542,2.431,2.431,0,0,1,.49,1.652v5.728h2.354V16.507a2.9,2.9,0,0,1,.58-1.917,1.76,1.76,0,0,1,1.411-.674,1.646,1.646,0,0,1,1.308.542,2.434,2.434,0,0,1,.49,1.652v5.728h2.354V16.11a4.708,4.708,0,0,0-1-3.228,3.524,3.524,0,0,0-2.755-1.126" transform="translate(-26.543 -7.403)" fill="#fff"/>
        <path id="Path_755" data-name="Path 755" d="M90.177,11.756a4.181,4.181,0,0,0-1.71.374,4.643,4.643,0,0,0-1.1.612l-.073.066v-.849H84.942V26H87.3V20.988c.069.054.15.114.244.182a5.587,5.587,0,0,0,.655.4,4.073,4.073,0,0,0,.9.33,4.458,4.458,0,0,0,1.08.131,4.59,4.59,0,0,0,3.408-1.5,5.08,5.08,0,0,0,1.44-3.635,5.079,5.079,0,0,0-1.44-3.635,4.591,4.591,0,0,0-3.408-1.5M92.671,16.9a2.99,2.99,0,0,1-.821,2.113,2.438,2.438,0,0,1-3.735,0,3.13,3.13,0,0,1,0-4.226,2.438,2.438,0,0,1,3.735,0,2.989,2.989,0,0,1,.821,2.113" transform="translate(-53.488 -7.403)" fill="#fff"/>
        <rect id="Rectangle_40" data-name="Rectangle 40" width="2.344" height="14.242" transform="translate(42.744 0.194)" fill="#fff"/>
        <path id="Path_756" data-name="Path 756" d="M129.01,11.756a5.057,5.057,0,0,0-5.037,5.041,5.094,5.094,0,0,0,1.519,3.695,4.931,4.931,0,0,0,3.619,1.54,5.192,5.192,0,0,0,1.52-.226,5.861,5.861,0,0,0,1.193-.491,6,6,0,0,0,.869-.608,5.529,5.529,0,0,0,.539-.5c.084-.1.146-.173.186-.227l.1-.128-1.545-1.545-.428.525a3.248,3.248,0,0,1-.964.69,3.128,3.128,0,0,1-1.467.356,2.84,2.84,0,0,1-2.754-2.106h7.371l.125-1.172a4.731,4.731,0,0,0-4.843-4.848m0,2.063a2.449,2.449,0,0,1,2.49,1.9h-5.03a2.887,2.887,0,0,1,.857-1.315h0A2.485,2.485,0,0,1,129,13.819" transform="translate(-78.065 -7.403)" fill="#fff"/>
        <path id="Path_757" data-name="Path 757" d="M163.587,9.086h2.68V11l-.091.091a2.918,2.918,0,0,1-.42.32,6.8,6.8,0,0,1-.711.4,4.4,4.4,0,0,1-1.025.333,6.312,6.312,0,0,1-1.33.137,4.927,4.927,0,0,1-4.971-4.971,4.927,4.927,0,0,1,4.971-4.961,5.009,5.009,0,0,1,1.488.219,5.65,5.65,0,0,1,1.146.476,4.7,4.7,0,0,1,.819.61,5.538,5.538,0,0,1,.489.488c.073.091.128.163.166.213l.129.171,1.649-1.661-.315-.4a4.837,4.837,0,0,0-.724-.7,11,11,0,0,0-1.126-.8,6.458,6.458,0,0,0-1.649-.693A7.546,7.546,0,0,0,162.689,0a7.375,7.375,0,0,0-5.353,2.123,7.027,7.027,0,0,0-2.164,5.191,7.025,7.025,0,0,0,2.164,5.191,7.373,7.373,0,0,0,5.353,2.124,9.007,9.007,0,0,0,3.883-.907,7.506,7.506,0,0,0,1.219-.8,7.4,7.4,0,0,0,.738-.65c.109-.123.19-.217.243-.284l.04-.051v-5.2h-5.226Z" transform="translate(-97.711 0)" fill="#fff"/>
        <path id="Path_758" data-name="Path 758" d="M199.522,11.756a5.035,5.035,0,0,0-1.4.2,4.551,4.551,0,0,0-1.095.45,5.94,5.94,0,0,0-.774.564,4.876,4.876,0,0,0-.475.447c-.071.084-.126.153-.167.207l-.1.128,1.549,1.549.393-.51a2.241,2.241,0,0,1,.781-.578,2.791,2.791,0,0,1,1.285-.294,1.829,1.829,0,0,1,1.3.463,1.457,1.457,0,0,1,.49.977L198,15.928a3.639,3.639,0,0,0-2.132,1.062,2.963,2.963,0,0,0-.79,2.09,2.7,2.7,0,0,0,1.021,2.064,3.713,3.713,0,0,0,2.531.887,4.073,4.073,0,0,0,1.024-.132,4.365,4.365,0,0,0,.839-.3,4.515,4.515,0,0,0,.62-.373q.119-.086.205-.151v.762h2.353V15.511a3.517,3.517,0,0,0-1.172-2.675,4.231,4.231,0,0,0-2.979-1.079m1.8,5.559a2.7,2.7,0,0,1-.631,1.9,2.282,2.282,0,0,1-1.757.663,1.784,1.784,0,0,1-1.119-.319.858.858,0,0,1-.388-.685.984.984,0,0,1,.277-.722,1.351,1.351,0,0,1,.757-.382Z" transform="translate(-123.044 -7.403)" fill="#fff"/>
        <path id="Path_759" data-name="Path 759" d="M226.044,14.787a1.2,1.2,0,0,1-1.155-.239.992.992,0,0,1-.284-.74V9.059h1.983V6.909h-1.983V3.736h-2.15V5.9c0,.891-.429,1.005-.8,1.005h-1.182v2.15h1.79v4.767a3.276,3.276,0,0,0,.788,2.408,2.939,2.939,0,0,0,2.164.748,4.687,4.687,0,0,0,1.451-.2l.127-.041V14.582l-.4.11a1.834,1.834,0,0,1-.344.095" transform="translate(-139.357 -2.352)" fill="#fff"/>
        <path id="Path_760" data-name="Path 760" d="M250.153,16.6a4.731,4.731,0,0,0-4.843-4.848,5.057,5.057,0,0,0-5.036,5.041,5.094,5.094,0,0,0,1.519,3.695,4.931,4.931,0,0,0,3.619,1.54,5.191,5.191,0,0,0,1.52-.226,5.862,5.862,0,0,0,1.194-.491,6,6,0,0,0,.869-.608,5.525,5.525,0,0,0,.539-.5c.084-.1.146-.173.186-.227l.1-.128-1.544-1.545-.428.525a3.249,3.249,0,0,1-.964.69,3.128,3.128,0,0,1-1.467.356,2.84,2.84,0,0,1-2.754-2.106h7.371Zm-4.848-2.785a2.449,2.449,0,0,1,2.49,1.9h-5.03a2.887,2.887,0,0,1,.857-1.315h0a2.485,2.485,0,0,1,1.683-.588" transform="translate(-152.466 -7.403)" fill="#fff"/>
      </g>
    </g>
  </g>
</svg>
